<svg width="64" height="64" viewBox="0 0 64 64" fill="none" xmlns="http://www.w3.org/2000/svg">
<rect x="0.5" y="0.5" width="63" height="63" rx="31.5" fill="black" fill-opacity="0.5"/>
<path d="M45.9272 27.8143C45.4221 24.4226 42.5355 21.8968 38.9995 21.8968C37.6284 21.8968 36.3294 22.3298 35.247 22.9793C33.515 20.0206 30.2677 18 26.5873 18C21.0307 18 16.4844 22.5463 16.4844 28.1029V28.5359C13.67 30.1957 11.7937 33.2266 11.7937 36.6904C11.7937 41.8141 15.9792 46 21.1033 46H42.8967C48.0204 46 52.2063 41.8145 52.2063 36.6904C52.2063 32.5771 49.5362 29.1132 45.928 27.8147L45.9272 27.8143Z" fill="white"/>
<rect x="0.5" y="0.5" width="63" height="63" rx="31.5" stroke="white"/>
</svg>
