<svg width="64" height="64" viewBox="0 0 64 64" fill="none" xmlns="http://www.w3.org/2000/svg">
<g filter="url(#filter0_b_128_5366)">
<rect width="64" height="64" rx="32" fill="black" fill-opacity="0.25"/>
<path d="M44.4303 18.9853C42.6755 17.2924 40.5917 15.9785 38.3081 15.1251C36.0242 14.2717 33.5891 13.8971 31.1543 14.0242C26.6854 14.2564 22.4608 16.1361 19.2965 19.3003C16.132 22.4642 14.2521 26.6883 14.0199 31.1568C13.867 34.408 14.5987 37.6398 16.137 40.5083C17.6754 43.3767 19.9629 45.7742 22.756 47.4454C25.5493 49.1169 28.7432 49.9997 31.9985 50H32.0098C32.5328 50 33.0458 49.8579 33.4936 49.5881C33.9417 49.3186 34.3079 48.9319 34.5526 48.47C34.7969 48.0336 34.9167 47.5383 34.8989 47.0383C34.8809 46.5383 34.726 46.053 34.4511 45.6352C33.169 43.6911 32.7876 41.2886 33.4049 39.043C33.7813 37.6063 34.5551 36.3048 35.6377 35.2878C36.7204 34.2711 38.0677 33.5802 39.5252 33.2946C41.6071 32.8596 43.7769 33.2596 45.5669 34.4081C46.0026 34.6904 46.5063 34.8497 47.0253 34.8695C47.544 34.8892 48.0585 34.7689 48.5145 34.5206C48.9691 34.2768 49.3479 33.9129 49.6099 33.4686C49.8718 33.0242 50.0065 32.5166 49.9998 32.0007C50.0077 29.5662 49.518 27.1557 48.5603 24.9175C47.6026 22.6794 46.1973 20.6604 44.4307 18.9852L44.4303 18.9853ZM19.7238 32.0011C19.7252 31.3915 19.9685 30.8076 20.4005 30.3774C20.8322 29.9471 21.417 29.7059 22.0263 29.7062C22.636 29.7067 23.2203 29.9491 23.6514 30.3802C24.0826 30.811 24.3247 31.3955 24.3252 32.0048C24.3258 32.6144 24.0845 33.1992 23.654 33.6308C23.2237 34.0625 22.6398 34.3057 22.0303 34.3074C21.4187 34.3066 20.8327 34.0633 20.4002 33.6308C19.9679 33.1986 19.7247 32.6124 19.7238 32.0011L19.7238 32.0011ZM26.5755 40.6742C26.1444 41.1053 25.5596 41.3474 24.9496 41.3474C24.34 41.3474 23.7551 41.1053 23.324 40.6742C22.8929 40.2432 22.6507 39.6584 22.6507 39.0487C22.6507 38.4388 22.8929 37.8543 23.324 37.423C23.7551 36.992 24.3399 36.7499 24.9496 36.7499C25.5596 36.7499 26.1445 36.992 26.5755 37.4233C27.0075 37.8538 27.2505 38.4386 27.2505 39.0488C27.2505 39.6587 27.0075 40.2437 26.5755 40.6743V40.6742ZM26.5755 26.5787C26.1444 27.0098 25.5596 27.2519 24.9496 27.2519C24.34 27.2519 23.7551 27.0098 23.324 26.5787C22.8929 26.1477 22.6504 25.5629 22.6504 24.953C22.6504 24.3434 22.8929 23.7586 23.324 23.3275C23.7551 22.8965 24.3399 22.6541 24.9496 22.6544C25.5596 22.6544 26.1445 22.8965 26.5755 23.3275C27.0075 23.7581 27.2505 24.3431 27.2505 24.953C27.2505 25.5632 27.0075 26.1479 26.5755 26.5787ZM31.9983 24.329V24.3287C31.388 24.3273 30.8035 24.0835 30.3729 23.651C29.9426 23.2185 29.7016 22.6329 29.7031 22.0227C29.7047 21.4125 29.9486 20.828 30.3811 20.3975C30.8137 19.9673 31.3993 19.7263 32.0096 19.7277C32.6198 19.7291 33.2044 19.9729 33.6347 20.4054C34.0652 20.8379 34.3062 21.4238 34.3048 22.034C34.3034 22.6442 34.0596 23.2287 33.627 23.6592C33.1945 24.0897 32.6086 24.3304 31.9983 24.3287L31.9983 24.329ZM40.6723 26.5787C40.2412 27.0098 39.6563 27.2519 39.0466 27.2519C38.4367 27.2519 37.8518 27.0098 37.4208 26.5787C36.9896 26.1477 36.7475 25.5629 36.7475 24.953C36.7475 24.3434 36.9896 23.7586 37.4208 23.3275C37.8519 22.8965 38.4367 22.6541 39.0466 22.6544C39.6563 22.6544 40.2412 22.8965 40.6723 23.3275C41.1046 23.7581 41.3472 24.3431 41.3472 24.953C41.3472 25.5632 41.1046 26.1479 40.6723 26.5787Z" fill="white"/>
<rect x="0.5" y="0.5" width="63" height="63" rx="31.5" stroke="white"/>
</g>
<defs>
<filter id="filter0_b_128_5366" x="-26" y="-26" width="116" height="116" filterUnits="userSpaceOnUse" color-interpolation-filters="sRGB">
<feFlood flood-opacity="0" result="BackgroundImageFix"/>
<feGaussianBlur in="BackgroundImageFix" stdDeviation="13"/>
<feComposite in2="SourceAlpha" operator="in" result="effect1_backgroundBlur_128_5366"/>
<feBlend mode="normal" in="SourceGraphic" in2="effect1_backgroundBlur_128_5366" result="shape"/>
</filter>
</defs>
</svg>
