<svg width="49" height="48" viewBox="0 0 49 48" fill="none" xmlns="http://www.w3.org/2000/svg">
<g filter="url(#filter0_b_1124_2850)">
<rect x="0.75" width="48" height="48" rx="24" fill="black" fill-opacity="0.5"/>
<path d="M15.1472 14.7545L15.0309 14.6737L14.8802 14.8946V11.8918C14.8802 11.2949 14.402 10.8109 13.8125 10.8109H12.3177C11.7279 10.8109 11.25 11.2949 11.25 11.8918V20.757C11.25 21.3539 11.7279 21.838 12.3177 21.838H21.073C21.6626 21.838 22.1407 21.3539 22.1407 20.757V19.2434C22.1407 18.6462 21.6626 18.1624 21.073 18.1624H17.8506C18.6466 17.2299 19.72 16.3513 20.5792 15.9056C21.0062 15.6894 21.4334 15.4732 21.8338 15.3381C22.2342 15.1759 22.6612 15.0678 23.0884 14.9868C23.6221 14.8787 24.3161 14.8246 24.8767 14.8246C29.8417 14.8246 34.0058 18.9867 34.0058 24.0946C34.0058 24.1756 33.9525 24.9864 33.899 25.4188C33.6587 26.9864 33.0182 28.6893 31.6568 30.3107C30.6691 31.473 28.6939 32.8242 26.8787 33.1756C25.6509 33.4188 25.037 34.3919 25.037 35.3378C25.037 36.4731 25.891 37.5 27.1457 37.5C27.6262 37.5 28.4804 37.2298 28.9074 37.0946C30.8561 36.4731 32.8313 35.4189 34.7265 33.3377C36.3815 31.5001 37.2623 29.6081 37.7695 27.7431C38.0099 26.8783 38.1432 25.8784 38.25 25.0134V23.2297C38.25 22.2836 37.7695 20.3108 37.5027 19.6079C35.1269 13.0677 29.5482 10.5 24.8766 10.5C23.9958 10.5 23.0883 10.554 22.2606 10.7432C21.6201 10.8783 20.9794 11.0675 20.3388 11.2837C18.6322 11.8977 16.7745 13.0275 15.147 14.7545L15.1472 14.7545Z" fill="white"/>
<rect x="1.25" y="0.5" width="47" height="47" rx="23.5" stroke="white"/>
</g>
<defs>
<filter id="filter0_b_1124_2850" x="-18.75" y="-19.5" width="87" height="87" filterUnits="userSpaceOnUse" color-interpolation-filters="sRGB">
<feFlood flood-opacity="0" result="BackgroundImageFix"/>
<feGaussianBlur in="BackgroundImageFix" stdDeviation="9.75"/>
<feComposite in2="SourceAlpha" operator="in" result="effect1_backgroundBlur_1124_2850"/>
<feBlend mode="normal" in="SourceGraphic" in2="effect1_backgroundBlur_1124_2850" result="shape"/>
</filter>
</defs>
</svg>
